<svg width="27" height="29" viewBox="0 0 27 29" fill="none" xmlns="http://www.w3.org/2000/svg">
<path d="M25.99 22.8529L21.5461 18.0798C22.3541 16.3441 22.8928 14.3192 22.8928 12.2943C22.8928 5.49626 17.7756 0 11.4464 0C5.11721 0 0 5.49626 0 12.2943C0 19.0923 5.11721 24.5885 11.4464 24.5885C13.3317 24.5885 15.217 24.01 16.8329 23.1421L21.2768 27.9152C22.6234 29.3616 24.6434 29.3616 25.99 27.9152C27.202 26.4688 27.202 24.2993 25.99 22.8529ZM11.4464 21.6958C6.5985 21.6958 2.69327 17.5012 2.69327 12.2943C2.69327 7.08728 6.5985 2.89277 11.4464 2.89277C16.2943 2.89277 20.1995 7.08728 20.1995 12.2943C20.1995 17.5012 16.2943 21.6958 11.4464 21.6958Z" fill="#F8EEF1"/>
</svg>
